<svg xmlns="http://www.w3.org/2000/svg" xmlns:xlink="http://www.w3.org/1999/xlink" width="220" zoomAndPan="magnify" viewBox="0 0 165 82.499998" height="110" preserveAspectRatio="xMidYMid meet" version="1.0"><defs><clipPath id="63527e97af"><path d="M 0.496094 0 L 164.503906 0 L 164.503906 82.003906 L 0.496094 82.003906 Z M 0.496094 0 " clip-rule="nonzero"/></clipPath></defs><g clip-path="url(#63527e97af)"><path fill="#ffffff" d="M 0.496094 0 L 164.503906 0 L 164.503906 82.003906 L 0.496094 82.003906 Z M 0.496094 0 " fill-opacity="1" fill-rule="nonzero"/></g><path fill="#0081c3" d="M 40.96875 31.457031 L 35.222656 44.132812 L 36.679688 44.132812 L 38.175781 40.804688 L 45.039062 40.804688 L 46.519531 44.132812 L 48.050781 44.132812 L 42.300781 31.457031 Z M 41.617188 33.109375 L 44.480469 39.53125 L 38.734375 39.53125 Z M 41.617188 33.109375 " fill-opacity="1" fill-rule="evenodd"/><path fill="#0181c4" d="M 50.175781 31.546875 L 50.175781 44.132812 L 51.597656 44.132812 L 51.597656 39.691406 L 54.660156 39.691406 C 57.34375 39.691406 59.613281 38.289062 59.613281 35.574219 L 59.613281 35.539062 C 59.613281 33.058594 57.742188 31.546875 54.894531 31.546875 Z M 51.597656 32.859375 L 54.785156 32.859375 C 56.824219 32.859375 58.171875 33.792969 58.171875 35.59375 L 58.171875 35.628906 C 58.171875 37.28125 56.804688 38.398438 54.714844 38.398438 L 51.597656 38.398438 Z M 51.597656 32.859375 " fill-opacity="1" fill-rule="evenodd"/><path fill="#0181c4" d="M 61.847656 31.546875 L 61.847656 44.132812 L 63.273438 44.132812 L 63.273438 39.691406 L 66.335938 39.691406 C 69.019531 39.691406 71.289062 38.289062 71.289062 35.539062 C 71.289062 33.058594 69.414062 31.546875 66.570312 31.546875 Z M 63.273438 32.859375 L 66.460938 32.859375 C 68.496094 32.859375 69.847656 33.792969 69.847656 35.59375 L 69.847656 35.628906 C 69.847656 37.28125 68.476562 38.398438 66.386719 38.398438 L 63.273438 38.398438 Z M 63.273438 32.859375 " fill-opacity="1" fill-rule="evenodd"/><path fill="#0081c3" d="M 76.925781 31.457031 L 71.179688 44.132812 L 72.636719 44.132812 L 74.132812 40.804688 L 80.996094 40.804688 L 82.472656 44.132812 L 84.007812 44.132812 L 78.257812 31.457031 Z M 77.574219 33.109375 L 80.4375 39.53125 L 74.691406 39.53125 Z M 77.574219 33.109375 " fill-opacity="1" fill-rule="evenodd"/><path fill="#0181c4" d="M 86.132812 31.546875 L 86.132812 44.132812 L 87.554688 44.132812 L 87.554688 39.242188 L 91.15625 39.242188 L 94.816406 44.132812 L 96.5625 44.132812 L 92.6875 38.992188 C 94.671875 38.632812 96.113281 37.410156 96.113281 35.324219 L 96.113281 35.285156 C 96.113281 34.296875 95.75 33.417969 95.140625 32.804688 C 94.347656 32.015625 93.101562 31.546875 91.554688 31.546875 Z M 87.554688 32.859375 L 91.445312 32.859375 C 93.480469 32.859375 94.671875 33.792969 94.671875 35.339844 L 94.671875 35.375 C 94.671875 36.996094 93.320312 37.964844 91.429688 37.964844 L 87.554688 37.964844 Z M 87.554688 32.859375 " fill-opacity="1" fill-rule="evenodd"/><path fill="#0181c4" d="M 98.238281 37.839844 L 98.238281 37.875 C 98.238281 41.34375 100.8125 44.347656 104.652344 44.347656 C 108.488281 44.347656 111.101562 41.308594 111.101562 37.839844 C 111.117188 37.820312 111.117188 37.820312 111.101562 37.804688 C 111.101562 34.332031 108.523438 31.332031 104.6875 31.332031 C 100.851562 31.332031 98.238281 34.371094 98.238281 37.839844 Z M 99.714844 37.839844 L 99.714844 37.804688 C 99.714844 34.945312 101.769531 32.644531 104.652344 32.644531 C 107.535156 32.644531 109.625 34.980469 109.625 37.839844 L 109.625 37.875 C 109.625 40.734375 107.570312 43.035156 104.6875 43.035156 C 101.804688 43.035156 99.714844 40.699219 99.714844 37.839844 Z M 99.714844 37.839844 " fill-opacity="1" fill-rule="evenodd"/><path fill="#0181c4" d="M 122.628906 31.546875 L 122.628906 38.863281 C 122.628906 41.617188 121.152344 43.019531 118.828125 43.019531 C 116.414062 43.019531 114.972656 41.488281 114.972656 38.773438 L 114.972656 31.546875 L 113.550781 31.546875 L 113.550781 38.863281 C 113.550781 42.425781 115.675781 44.332031 118.792969 44.332031 C 121.945312 44.332031 124.054688 42.425781 124.054688 38.757812 L 124.054688 31.546875 Z M 122.628906 31.546875 " fill-opacity="1" fill-rule="evenodd"/><path fill="#0081c3" d="M 136.339844 31.546875 L 136.339844 41.632812 L 128.394531 31.546875 L 127.0625 31.546875 L 127.0625 44.132812 L 128.449219 44.132812 L 128.449219 33.8125 L 136.589844 44.132812 L 137.726562 44.132812 L 137.726562 31.546875 Z M 136.339844 31.546875 " fill-opacity="1" fill-rule="evenodd"/><path fill="#0181c4" d="M 140.921875 31.523438 L 140.921875 44.109375 L 145.300781 44.109375 C 149.261719 44.109375 152 41.359375 152 37.816406 L 152 37.78125 C 152 34.238281 149.261719 31.523438 145.300781 31.523438 Z M 142.34375 32.835938 L 145.300781 32.835938 C 148.488281 32.835938 150.523438 35.03125 150.523438 37.816406 L 150.523438 37.851562 C 150.523438 40.640625 148.488281 42.796875 145.300781 42.796875 L 142.34375 42.796875 Z M 142.34375 32.835938 " fill-opacity="1" fill-rule="evenodd"/><path fill="#0181c4" d="M 16.300781 30.039062 C 15.433594 30.039062 14.691406 30.34375 14.085938 30.949219 C 13.476562 31.558594 13.171875 32.292969 13.171875 33.160156 L 13.171875 38.363281 L 14.214844 38.363281 L 14.214844 33.160156 C 14.214844 32.597656 14.421875 32.109375 14.832031 31.699219 C 15.246094 31.285156 15.734375 31.082031 16.300781 31.082031 L 25.683594 31.082031 C 26.25 31.082031 26.738281 31.285156 27.152344 31.699219 C 27.5625 32.109375 27.769531 32.597656 27.769531 33.160156 L 27.769531 42.527344 C 27.769531 43.089844 27.5625 43.578125 27.152344 43.992188 C 26.738281 44.402344 26.25 44.609375 25.683594 44.609375 L 20.472656 44.609375 L 20.472656 45.648438 L 25.683594 45.648438 C 26.554688 45.648438 27.292969 45.34375 27.898438 44.738281 C 28.507812 44.132812 28.8125 43.394531 28.8125 42.527344 L 28.8125 33.160156 C 28.8125 32.292969 28.507812 31.558594 27.898438 30.949219 C 27.292969 30.34375 26.554688 30.039062 25.683594 30.039062 Z M 16.300781 30.039062 " fill-opacity="1" fill-rule="evenodd"/><path fill="#f26222" d="M 13.203125 40.476562 C 12.488281 41.195312 12.128906 42.050781 12.128906 43.046875 C 12.128906 44.042969 12.488281 44.902344 13.203125 45.617188 C 13.921875 46.332031 14.78125 46.691406 15.777344 46.691406 C 16.777344 46.691406 17.636719 46.332031 18.351562 45.617188 C 19.070312 44.902344 19.429688 44.042969 19.429688 43.046875 C 19.429688 42.050781 19.070312 41.195312 18.351562 40.476562 C 17.636719 39.761719 16.777344 39.40625 15.777344 39.40625 C 14.78125 39.40625 13.921875 39.761719 13.203125 40.476562 Z M 13.9375 44.886719 C 13.429688 44.375 13.171875 43.761719 13.171875 43.046875 C 13.171875 42.332031 13.429688 41.71875 13.9375 41.210938 C 14.449219 40.699219 15.0625 40.445312 15.777344 40.445312 C 16.496094 40.445312 17.109375 40.703125 17.621094 41.210938 C 18.128906 41.71875 18.386719 42.332031 18.386719 43.046875 C 18.386719 43.761719 18.132812 44.375 17.621094 44.886719 C 17.109375 45.394531 16.496094 45.648438 15.777344 45.648438 C 15.0625 45.648438 14.449219 45.394531 13.9375 44.886719 Z M 13.9375 44.886719 " fill-opacity="1" fill-rule="evenodd"/><path fill="#f26222" d="M 124.449219 51.09375 L 124.449219 51.113281 C 124.449219 52.097656 125.085938 52.542969 126.46875 52.84375 C 127.730469 53.109375 128.03125 53.429688 128.03125 53.988281 L 128.03125 54.003906 C 128.03125 54.597656 127.5 55.023438 126.691406 55.023438 C 125.859375 55.023438 125.257812 54.742188 124.628906 54.175781 L 124.207031 54.671875 C 124.929688 55.316406 125.710938 55.632812 126.664062 55.632812 C 127.859375 55.632812 128.71875 54.964844 128.71875 53.933594 L 128.71875 53.917969 C 128.71875 53 128.101562 52.511719 126.761719 52.21875 C 125.4375 51.933594 125.128906 51.617188 125.128906 51.050781 L 125.128906 51.035156 C 125.128906 50.492188 125.625 50.066406 126.40625 50.066406 C 127.027344 50.066406 127.585938 50.261719 128.144531 50.714844 L 128.539062 50.191406 C 127.929688 49.703125 127.300781 49.457031 126.425781 49.457031 C 125.28125 49.457031 124.449219 50.148438 124.449219 51.09375 Z M 104.253906 51.09375 L 104.253906 51.113281 C 104.253906 52.097656 104.886719 52.542969 106.273438 52.84375 C 107.535156 53.109375 107.835938 53.429688 107.835938 53.988281 L 107.835938 54.003906 C 107.835938 54.597656 107.304688 55.023438 106.496094 55.023438 C 105.660156 55.023438 105.058594 54.742188 104.433594 54.175781 L 104.011719 54.671875 C 104.734375 55.316406 105.515625 55.632812 106.46875 55.632812 C 107.664062 55.632812 108.523438 54.964844 108.523438 53.933594 L 108.523438 53.917969 C 108.523438 53 107.90625 52.511719 106.5625 52.21875 C 105.242188 51.933594 104.929688 51.617188 104.929688 51.050781 L 104.929688 51.035156 C 104.929688 50.492188 105.429688 50.066406 106.210938 50.066406 C 106.832031 50.066406 107.390625 50.261719 107.949219 50.714844 L 108.34375 50.191406 C 107.734375 49.703125 107.105469 49.457031 106.230469 49.457031 C 105.085938 49.457031 104.253906 50.148438 104.253906 51.09375 Z M 147.851562 49.539062 L 147.851562 55.546875 L 151.914062 55.546875 L 151.914062 54.921875 L 148.527344 54.921875 L 148.527344 49.539062 Z M 140.328125 49.539062 L 140.328125 55.546875 L 144.394531 55.546875 L 144.394531 54.921875 L 141.007812 54.921875 L 141.007812 49.539062 Z M 132.335938 49.539062 L 132.335938 55.546875 L 136.730469 55.546875 L 136.730469 54.929688 L 133.015625 54.929688 L 133.015625 52.828125 L 136.300781 52.828125 L 136.300781 52.210938 L 133.015625 52.210938 L 133.015625 50.160156 L 136.6875 50.160156 L 136.6875 49.539062 Z M 111.582031 49.539062 L 111.582031 50.167969 L 113.609375 50.167969 L 113.609375 55.546875 L 114.289062 55.546875 L 114.289062 50.167969 L 116.320312 50.167969 L 116.320312 49.539062 Z M 99.886719 49.539062 L 99.886719 53.035156 C 99.886719 54.347656 99.183594 55.015625 98.074219 55.015625 C 96.921875 55.015625 96.234375 54.285156 96.234375 52.992188 L 96.234375 49.539062 L 95.554688 49.539062 L 95.554688 53.035156 C 95.554688 54.734375 96.570312 55.644531 98.054688 55.644531 C 99.558594 55.644531 100.566406 54.734375 100.566406 52.984375 L 100.566406 49.539062 Z M 91.121094 49.539062 L 91.121094 53.566406 C 91.121094 54.519531 90.621094 55.007812 89.941406 55.007812 C 89.316406 55.007812 88.9375 54.707031 88.566406 54.148438 L 88.078125 54.570312 C 88.457031 55.1875 89.03125 55.632812 89.933594 55.632812 C 90.46875 55.632812 90.921875 55.460938 91.257812 55.136719 C 91.601562 54.792969 91.808594 54.261719 91.808594 53.558594 L 91.808594 49.539062 Z M 91.121094 49.539062 " fill-opacity="1" fill-rule="evenodd"/></svg>