<svg xmlns="http://www.w3.org/2000/svg" xmlns:xlink="http://www.w3.org/1999/xlink" width="220" zoomAndPan="magnify" viewBox="0 0 165 82.499998" height="110" preserveAspectRatio="xMidYMid meet" version="1.0"><defs><clipPath id="dda0b6b133"><path d="M 0.496094 0 L 164.503906 0 L 164.503906 82.003906 L 0.496094 82.003906 Z M 0.496094 0 " clip-rule="nonzero"/></clipPath><clipPath id="2cbda5c878"><path d="M 92 31.695312 L 107 31.695312 L 107 50.332031 L 92 50.332031 Z M 92 31.695312 " clip-rule="nonzero"/></clipPath><clipPath id="f15a095fae"><path d="M 127 31.695312 L 139 31.695312 L 139 50.332031 L 127 50.332031 Z M 127 31.695312 " clip-rule="nonzero"/></clipPath></defs><g clip-path="url(#dda0b6b133)"><path fill="#ffffff" d="M 0.496094 0 L 164.503906 0 L 164.503906 82.003906 L 0.496094 82.003906 Z M 0.496094 0 " fill-opacity="1" fill-rule="nonzero"/><path fill="#ffffff" d="M 0.496094 0 L 164.503906 0 L 164.503906 82.003906 L 0.496094 82.003906 Z M 0.496094 0 " fill-opacity="1" fill-rule="nonzero"/></g><g clip-path="url(#2cbda5c878)"><path fill="#0b2b39" d="M 98.367188 35 C 99.316406 34.515625 100.347656 34.269531 101.429688 34.269531 C 102.585938 34.269531 103.683594 34.542969 104.703125 35.089844 C 104.953125 35.203125 105.15625 35.257812 105.332031 35.257812 C 105.617188 35.257812 105.859375 35.140625 106.027344 34.917969 C 106.179688 34.710938 106.257812 34.464844 106.257812 34.179688 C 106.257812 33.652344 106.042969 33.242188 105.617188 32.964844 C 105.03125 32.589844 104.355469 32.296875 103.613281 32.09375 C 102.871094 31.890625 102.097656 31.789062 101.3125 31.789062 C 99.867188 31.789062 98.464844 32.128906 97.152344 32.792969 C 95.832031 33.460938 94.742188 34.503906 93.914062 35.890625 C 93.085938 37.273438 92.667969 38.988281 92.667969 40.988281 C 92.667969 42.988281 93.089844 44.683594 93.914062 46.074219 C 94.742188 47.46875 95.828125 48.523438 97.136719 49.207031 C 98.445312 49.890625 99.839844 50.238281 101.289062 50.238281 C 102.929688 50.238281 104.386719 49.824219 105.609375 49.015625 C 105.816406 48.894531 105.976562 48.726562 106.089844 48.515625 C 106.203125 48.308594 106.257812 48.09375 106.257812 47.871094 C 106.257812 47.570312 106.171875 47.304688 106 47.089844 C 105.816406 46.863281 105.570312 46.742188 105.285156 46.742188 C 105.089844 46.742188 104.902344 46.796875 104.738281 46.894531 C 103.699219 47.453125 102.585938 47.734375 101.429688 47.734375 C 100.332031 47.734375 99.292969 47.480469 98.347656 46.980469 C 97.40625 46.484375 96.636719 45.71875 96.0625 44.707031 C 95.484375 43.695312 95.195312 42.441406 95.195312 40.988281 C 95.195312 39.535156 95.488281 38.242188 96.074219 37.234375 C 96.65625 36.230469 97.429688 35.480469 98.367188 35 Z M 98.367188 35 " fill-opacity="1" fill-rule="nonzero"/></g><g clip-path="url(#f15a095fae)"><path fill="#0b2b39" d="M 136.855469 35.46875 C 137.496094 35.089844 137.925781 34.3125 136.175781 32.867188 C 136.164062 32.859375 136.15625 32.855469 136.148438 32.84375 C 135.238281 32.148438 134.109375 31.816406 132.808594 31.816406 C 131.847656 31.816406 130.964844 32.011719 130.1875 32.394531 C 129.402344 32.78125 128.773438 33.34375 128.328125 34.066406 C 127.878906 34.789062 127.648438 35.625 127.648438 36.550781 C 127.648438 37.5625 127.886719 38.421875 128.355469 39.105469 C 128.816406 39.773438 129.378906 40.320312 130.027344 40.730469 C 130.660156 41.128906 131.503906 41.5625 132.53125 42.023438 C 133.34375 42.394531 134.003906 42.722656 134.484375 42.996094 C 134.945312 43.257812 135.335938 43.589844 135.644531 43.980469 C 135.941406 44.359375 136.085938 44.808594 136.085938 45.347656 C 136.085938 46.117188 135.820312 46.71875 135.273438 47.183594 C 134.722656 47.648438 133.964844 47.890625 133.015625 47.890625 C 132.214844 47.890625 131.597656 47.804688 130.933594 47.429688 C 130.742188 47.316406 130.484375 47.109375 130.226562 46.824219 C 129.417969 45.949219 129.179688 45.40625 128.324219 45.628906 C 127.671875 45.796875 127.332031 46.546875 127.644531 47.402344 C 128.058594 48.539062 129.421875 49.308594 129.421875 49.308594 C 130.429688 49.976562 131.660156 50.226562 133.015625 50.226562 C 134.097656 50.226562 135.078125 50.023438 135.933594 49.628906 C 136.792969 49.226562 137.480469 48.640625 137.964844 47.882812 C 138.457031 47.128906 138.703125 46.234375 138.703125 45.222656 C 138.703125 44.214844 138.46875 43.359375 138.007812 42.679688 C 137.554688 42.015625 136.996094 41.484375 136.339844 41.101562 C 135.710938 40.730469 134.867188 40.316406 133.835938 39.871094 C 132.992188 39.515625 132.320312 39.195312 131.832031 38.921875 C 131.363281 38.660156 130.964844 38.320312 130.652344 37.914062 C 130.34375 37.519531 130.199219 37.046875 130.199219 36.476562 C 130.199219 35.753906 130.441406 35.203125 130.9375 34.789062 C 131.445312 34.367188 132.082031 34.15625 132.832031 34.15625 C 133.582031 34.15625 134.144531 34.402344 134.667969 34.777344 C 134.699219 34.800781 134.988281 35.054688 134.988281 35.054688 C 135.957031 35.960938 136.855469 35.46875 136.855469 35.46875 Z M 136.855469 35.46875 " fill-opacity="1" fill-rule="nonzero"/></g><path fill="#0b2b39" d="M 152.46875 49.96875 C 152.4375 49.96875 152.40625 49.953125 152.378906 49.925781 C 152.355469 49.894531 152.347656 49.859375 152.347656 49.820312 L 152.347656 48.390625 C 152.347656 48.339844 152.363281 48.292969 152.394531 48.257812 C 152.425781 48.214844 152.460938 48.195312 152.507812 48.195312 L 152.574219 48.195312 C 152.605469 48.195312 152.636719 48.210938 152.660156 48.234375 C 152.691406 48.253906 152.710938 48.28125 152.722656 48.316406 L 153.167969 49.644531 L 153.613281 48.316406 C 153.628906 48.285156 153.648438 48.253906 153.671875 48.234375 C 153.699219 48.210938 153.730469 48.195312 153.765625 48.195312 L 153.828125 48.195312 C 153.875 48.195312 153.914062 48.21875 153.945312 48.257812 C 153.976562 48.292969 153.992188 48.339844 153.992188 48.390625 L 153.992188 49.820312 C 153.992188 49.859375 153.980469 49.894531 153.957031 49.925781 C 153.933594 49.953125 153.90625 49.96875 153.867188 49.96875 C 153.835938 49.96875 153.804688 49.953125 153.78125 49.925781 C 153.757812 49.894531 153.746094 49.859375 153.746094 49.820312 L 153.746094 48.609375 L 153.320312 49.851562 C 153.304688 49.886719 153.285156 49.914062 153.257812 49.933594 C 153.230469 49.957031 153.203125 49.96875 153.167969 49.96875 C 153.136719 49.96875 153.105469 49.957031 153.078125 49.933594 C 153.050781 49.914062 153.03125 49.886719 153.019531 49.851562 L 152.59375 48.609375 L 152.59375 49.820312 C 152.59375 49.859375 152.582031 49.894531 152.558594 49.925781 C 152.535156 49.953125 152.507812 49.96875 152.46875 49.96875 Z M 151.511719 49.96875 C 151.476562 49.96875 151.449219 49.953125 151.425781 49.925781 C 151.40625 49.898438 151.390625 49.863281 151.390625 49.824219 L 151.390625 48.472656 L 151.007812 48.472656 C 150.976562 48.472656 150.949219 48.460938 150.925781 48.4375 C 150.90625 48.410156 150.894531 48.375 150.894531 48.339844 C 150.894531 48.300781 150.90625 48.269531 150.925781 48.246094 C 150.949219 48.21875 150.976562 48.207031 151.007812 48.207031 L 152.023438 48.207031 C 152.054688 48.207031 152.078125 48.21875 152.097656 48.246094 C 152.121094 48.273438 152.132812 48.300781 152.132812 48.339844 C 152.132812 48.375 152.121094 48.410156 152.097656 48.4375 C 152.078125 48.460938 152.050781 48.472656 152.023438 48.472656 L 151.632812 48.472656 L 151.632812 49.824219 C 151.632812 49.863281 151.621094 49.898438 151.601562 49.925781 C 151.578125 49.953125 151.546875 49.96875 151.511719 49.96875 Z M 151.511719 49.96875 " fill-opacity="1" fill-rule="nonzero"/><path fill="#0b2b39" d="M 22.5625 32.089844 C 21.878906 32.089844 21.324219 32.644531 21.324219 33.328125 L 21.324219 39.804688 L 13.382812 39.804688 L 13.382812 33.328125 C 13.382812 32.644531 12.828125 32.089844 12.144531 32.089844 C 11.460938 32.089844 10.910156 32.644531 10.910156 33.328125 L 10.910156 48.714844 C 10.910156 49.398438 11.460938 49.953125 12.144531 49.953125 C 12.828125 49.953125 13.382812 49.398438 13.382812 48.714844 L 13.382812 42.222656 L 21.324219 42.222656 L 21.324219 48.714844 C 21.324219 49.398438 21.878906 49.953125 22.5625 49.953125 C 23.246094 49.953125 23.796875 49.398438 23.796875 48.714844 L 23.796875 33.328125 C 23.796875 32.644531 23.246094 32.089844 22.5625 32.089844 Z M 22.5625 32.089844 " fill-opacity="1" fill-rule="nonzero"/><path fill="#0b2b39" d="M 41.828125 48.292969 L 36.792969 33.359375 C 36.660156 32.984375 36.46875 32.683594 36.226562 32.453125 C 35.964844 32.214844 35.664062 32.089844 35.335938 32.089844 L 34.816406 32.089844 C 34.519531 32.089844 34.230469 32.21875 33.964844 32.464844 C 33.710938 32.703125 33.523438 33.003906 33.40625 33.363281 L 31.890625 37.875 L 33.0625 41.585938 C 34.03125 38.335938 35.074219 35.5 35.125 35.335938 L 39.445312 49.074219 C 39.65625 49.746094 40.378906 50.113281 41.042969 49.886719 C 41.699219 49.664062 42.050781 48.949219 41.828125 48.296875 Z M 41.828125 48.292969 " fill-opacity="1" fill-rule="nonzero"/><path fill="#10a4b3" d="M 30.933594 40.824219 L 28.417969 48.292969 C 28.195312 48.949219 28.546875 49.660156 29.203125 49.886719 C 29.867188 50.113281 30.589844 49.746094 30.800781 49.074219 L 32.160156 44.558594 Z M 30.933594 40.824219 " fill-opacity="1" fill-rule="nonzero"/><path fill="#0b2b39" d="M 124.011719 48.292969 L 118.976562 33.359375 C 118.84375 32.984375 118.652344 32.683594 118.40625 32.453125 C 118.148438 32.214844 117.847656 32.089844 117.519531 32.089844 L 117 32.089844 C 116.703125 32.089844 116.414062 32.21875 116.148438 32.464844 C 115.894531 32.703125 115.703125 33.003906 115.589844 33.363281 L 114.070312 37.875 L 115.246094 41.585938 C 116.214844 38.335938 117.257812 35.5 117.304688 35.335938 L 121.628906 49.074219 C 121.839844 49.746094 122.5625 50.113281 123.226562 49.886719 C 123.882812 49.664062 124.234375 48.949219 124.011719 48.296875 Z M 124.011719 48.292969 " fill-opacity="1" fill-rule="nonzero"/><path fill="#10a4b3" d="M 113.117188 40.824219 L 110.601562 48.292969 C 110.378906 48.949219 110.730469 49.660156 111.382812 49.886719 C 112.050781 50.113281 112.773438 49.746094 112.984375 49.074219 L 114.339844 44.558594 Z M 113.117188 40.824219 " fill-opacity="1" fill-rule="nonzero"/><path fill="#0b2b39" d="M 57.375 47.550781 L 49.523438 47.550781 L 58.015625 33.722656 C 58.175781 33.453125 58.253906 33.222656 58.253906 33.011719 C 58.253906 32.746094 58.140625 32.515625 57.925781 32.339844 C 57.726562 32.175781 57.457031 32.09375 57.128906 32.09375 L 47.011719 32.09375 C 46.351562 32.09375 45.8125 32.628906 45.8125 33.292969 C 45.8125 33.957031 46.351562 34.496094 47.011719 34.496094 L 54.835938 34.496094 L 46.285156 48.316406 C 46.125 48.566406 46.042969 48.808594 46.042969 49.035156 C 46.042969 49.316406 46.152344 49.554688 46.355469 49.71875 C 46.550781 49.875 46.8125 49.953125 47.140625 49.953125 L 57.371094 49.953125 C 58.035156 49.953125 58.574219 49.417969 58.574219 48.753906 C 58.574219 48.089844 58.035156 47.550781 57.371094 47.550781 Z M 57.375 47.550781 " fill-opacity="1" fill-rule="nonzero"/><path fill="#0b2b39" d="M 76.285156 33.28125 C 76.285156 32.613281 75.746094 32.074219 75.078125 32.074219 L 65.746094 32.074219 C 65.09375 32.074219 64.570312 32.601562 64.570312 33.253906 L 64.570312 34.492188 L 75.078125 34.492188 C 75.746094 34.492188 76.285156 33.949219 76.285156 33.28125 Z M 76.285156 33.28125 " fill-opacity="1" fill-rule="nonzero"/><path fill="#0b2b39" d="M 75.144531 47.535156 L 64.632812 47.535156 L 64.632812 48.773438 C 64.632812 49.425781 65.160156 49.953125 65.8125 49.953125 L 75.140625 49.953125 C 75.808594 49.953125 76.351562 49.414062 76.351562 48.742188 C 76.351562 48.074219 75.808594 47.53125 75.140625 47.53125 Z M 75.144531 47.535156 " fill-opacity="1" fill-rule="nonzero"/><path fill="#0b2b39" d="M 75.144531 39.804688 L 61.6875 39.804688 L 61.6875 42.222656 L 75.144531 42.222656 C 75.808594 42.222656 76.351562 41.679688 76.351562 41.011719 C 76.351562 40.34375 75.8125 39.800781 75.144531 39.800781 Z M 75.144531 39.804688 " fill-opacity="1" fill-rule="nonzero"/><path fill="#0b2b39" d="M 89.523438 47.535156 L 83.457031 47.535156 L 83.457031 33.34375 C 83.457031 32.652344 82.894531 32.089844 82.199219 32.089844 C 81.507812 32.089844 80.945312 32.652344 80.945312 33.34375 L 80.945312 48.773438 C 80.945312 49.425781 81.472656 49.953125 82.125 49.953125 L 89.523438 49.953125 C 90.1875 49.953125 90.730469 49.410156 90.730469 48.742188 C 90.730469 48.074219 90.1875 47.53125 89.523438 47.53125 Z M 89.523438 47.535156 " fill-opacity="1" fill-rule="nonzero"/><path fill="#0b2b39" d="M 151.601562 32.089844 L 142.292969 32.089844 C 141.625 32.089844 141.085938 32.628906 141.085938 33.300781 C 141.085938 33.96875 141.625 34.507812 142.292969 34.507812 L 145.695312 34.507812 L 145.695312 48.699219 C 145.695312 49.394531 146.253906 49.957031 146.949219 49.957031 C 147.640625 49.957031 148.203125 49.394531 148.203125 48.699219 L 148.203125 34.507812 L 151.601562 34.507812 C 152.269531 34.507812 152.8125 33.96875 152.8125 33.296875 C 152.8125 32.628906 152.269531 32.089844 151.601562 32.089844 Z M 151.601562 32.089844 " fill-opacity="1" fill-rule="nonzero"/></svg>