<svg xmlns="http://www.w3.org/2000/svg" xmlns:xlink="http://www.w3.org/1999/xlink" width="220" zoomAndPan="magnify" viewBox="0 0 165 82.499998" height="110" preserveAspectRatio="xMidYMid meet" version="1.0"><defs><clipPath id="e395606d65"><path d="M 0.496094 0 L 164.503906 0 L 164.503906 82.003906 L 0.496094 82.003906 Z M 0.496094 0 " clip-rule="nonzero"/></clipPath></defs><g clip-path="url(#e395606d65)"><path fill="#ffffff" d="M 0.496094 0 L 164.503906 0 L 164.503906 82.003906 L 0.496094 82.003906 Z M 0.496094 0 " fill-opacity="1" fill-rule="nonzero"/></g><path fill="#1e789f" d="M 76.976562 53.101562 L 31.816406 53.101562 C 31.398438 53.101562 30.980469 53.058594 30.566406 52.976562 C 30.15625 52.894531 29.753906 52.769531 29.367188 52.609375 C 28.976562 52.445312 28.609375 52.25 28.257812 52.015625 C 27.910156 51.777344 27.585938 51.511719 27.289062 51.214844 C 26.988281 50.914062 26.722656 50.589844 26.492188 50.238281 C 26.257812 49.886719 26.058594 49.515625 25.898438 49.125 C 25.738281 48.734375 25.613281 48.332031 25.53125 47.917969 C 25.449219 47.503906 25.410156 47.085938 25.410156 46.664062 L 25.410156 22.855469 C 25.410156 22.433594 25.449219 22.015625 25.53125 21.601562 C 25.617188 21.1875 25.738281 20.785156 25.898438 20.394531 C 26.058594 20.003906 26.257812 19.632812 26.492188 19.28125 C 26.726562 18.929688 26.992188 18.605469 27.289062 18.308594 C 27.585938 18.007812 27.910156 17.742188 28.257812 17.507812 C 28.609375 17.273438 28.976562 17.074219 29.367188 16.910156 C 29.753906 16.75 30.15625 16.628906 30.566406 16.546875 C 30.980469 16.460938 31.398438 16.421875 31.816406 16.421875 L 76.976562 16.421875 L 76.976562 18.617188 L 31.816406 18.617188 C 31.539062 18.617188 31.265625 18.644531 30.996094 18.699219 C 30.722656 18.753906 30.457031 18.835938 30.203125 18.941406 C 29.945312 19.046875 29.703125 19.179688 29.472656 19.332031 C 29.242188 19.488281 29.03125 19.664062 28.832031 19.859375 C 28.636719 20.058594 28.460938 20.269531 28.308594 20.503906 C 28.15625 20.734375 28.023438 20.976562 27.917969 21.234375 C 27.8125 21.492188 27.730469 21.757812 27.675781 22.03125 C 27.621094 22.300781 27.59375 22.578125 27.59375 22.855469 L 27.59375 46.667969 C 27.59375 46.945312 27.625 47.222656 27.675781 47.496094 C 27.730469 47.765625 27.8125 48.03125 27.917969 48.289062 C 28.023438 48.546875 28.15625 48.789062 28.308594 49.019531 C 28.464844 49.253906 28.636719 49.464844 28.835938 49.664062 C 29.03125 49.859375 29.242188 50.035156 29.472656 50.1875 C 29.703125 50.34375 29.949219 50.472656 30.203125 50.582031 C 30.460938 50.6875 30.722656 50.769531 30.996094 50.820312 C 31.265625 50.875 31.539062 50.902344 31.816406 50.902344 L 76.976562 50.902344 Z M 76.976562 53.101562 " fill-opacity="1" fill-rule="nonzero"/><path fill="#0b2e4f" d="M 132.800781 53.101562 L 83.417969 53.101562 L 83.417969 50.902344 L 132.800781 50.902344 C 133.078125 50.902344 133.351562 50.875 133.625 50.820312 C 133.894531 50.769531 134.160156 50.6875 134.414062 50.582031 C 134.671875 50.472656 134.914062 50.34375 135.144531 50.1875 C 135.375 50.035156 135.589844 49.859375 135.785156 49.660156 C 135.980469 49.464844 136.15625 49.25 136.308594 49.019531 C 136.464844 48.789062 136.59375 48.542969 136.699219 48.285156 C 136.804688 48.03125 136.886719 47.765625 136.941406 47.492188 C 136.996094 47.21875 137.023438 46.941406 137.023438 46.664062 L 137.023438 22.855469 C 137.023438 22.578125 136.996094 22.300781 136.941406 22.027344 C 136.886719 21.753906 136.804688 21.492188 136.699219 21.234375 C 136.59375 20.976562 136.464844 20.730469 136.308594 20.5 C 136.15625 20.269531 135.980469 20.054688 135.785156 19.859375 C 135.589844 19.660156 135.375 19.484375 135.144531 19.332031 C 134.914062 19.175781 134.671875 19.046875 134.414062 18.941406 C 134.160156 18.832031 133.894531 18.753906 133.625 18.699219 C 133.351562 18.644531 133.078125 18.617188 132.800781 18.617188 L 83.417969 18.617188 L 83.417969 16.417969 L 132.800781 16.417969 C 133.21875 16.417969 133.636719 16.460938 134.050781 16.542969 C 134.460938 16.625 134.863281 16.75 135.25 16.910156 C 135.640625 17.074219 136.007812 17.269531 136.359375 17.503906 C 136.707031 17.742188 137.03125 18.007812 137.328125 18.304688 C 137.628906 18.605469 137.894531 18.929688 138.128906 19.28125 C 138.359375 19.632812 138.558594 20.003906 138.71875 20.390625 C 138.882812 20.78125 139.003906 21.183594 139.085938 21.597656 C 139.167969 22.011719 139.210938 22.429688 139.210938 22.855469 L 139.210938 46.667969 C 139.207031 47.089844 139.167969 47.507812 139.085938 47.921875 C 139.003906 48.335938 138.878906 48.738281 138.71875 49.128906 C 138.558594 49.519531 138.359375 49.890625 138.125 50.242188 C 137.890625 50.589844 137.625 50.917969 137.328125 51.214844 C 137.03125 51.511719 136.707031 51.78125 136.359375 52.015625 C 136.007812 52.25 135.640625 52.449219 135.25 52.609375 C 134.863281 52.769531 134.460938 52.894531 134.050781 52.976562 C 133.636719 53.058594 133.21875 53.101562 132.800781 53.101562 Z M 132.800781 53.101562 " fill-opacity="1" fill-rule="nonzero"/><path fill="#0b2e4f" d="M 36.125 27.375 L 38.3125 27.375 L 38.3125 42.390625 L 36.125 42.390625 Z M 36.125 27.375 " fill-opacity="1" fill-rule="nonzero"/><path fill="#0b2e4f" d="M 43.078125 42.390625 L 40.914062 42.390625 L 40.914062 27.375 L 43.078125 27.375 L 51.207031 39.679688 L 50.589844 39.679688 L 50.589844 27.375 L 52.753906 27.375 L 52.753906 42.390625 L 50.589844 42.390625 L 42.480469 30.085938 L 43.078125 30.085938 Z M 43.078125 42.390625 " fill-opacity="1" fill-rule="nonzero"/><path fill="#0b2e4f" d="M 57.210938 27.375 L 57.210938 42.390625 L 55.023438 42.390625 L 55.023438 27.375 Z M 63.003906 36.074219 L 55.152344 36.074219 L 55.152344 34.085938 L 63.011719 34.085938 Z M 64.097656 29.382812 L 55.191406 29.382812 L 55.191406 27.375 L 64.101562 27.375 Z M 64.097656 29.382812 " fill-opacity="1" fill-rule="nonzero"/><path fill="#0b2e4f" d="M 79.097656 34.871094 C 79.097656 36.390625 78.792969 37.734375 78.179688 38.902344 C 77.589844 40.058594 76.738281 40.972656 75.632812 41.644531 C 74.546875 42.304688 73.296875 42.636719 71.882812 42.640625 C 70.472656 42.644531 69.21875 42.3125 68.128906 41.644531 C 67.027344 40.976562 66.179688 40.0625 65.589844 38.910156 C 64.980469 37.753906 64.675781 36.40625 64.675781 34.871094 C 64.675781 33.355469 64.980469 32.011719 65.59375 30.84375 C 66.1875 29.6875 67.035156 28.773438 68.144531 28.101562 C 69.230469 27.4375 70.472656 27.105469 71.875 27.105469 C 73.304688 27.105469 74.558594 27.4375 75.640625 28.101562 C 76.742188 28.773438 77.585938 29.683594 78.179688 30.835938 C 78.792969 31.992188 79.097656 33.339844 79.097656 34.871094 Z M 76.808594 34.871094 C 76.808594 33.726562 76.605469 32.734375 76.199219 31.890625 C 75.816406 31.066406 75.246094 30.414062 74.488281 29.921875 C 73.691406 29.429688 72.832031 29.195312 71.898438 29.21875 C 70.960938 29.195312 70.097656 29.433594 69.296875 29.921875 C 68.53125 30.410156 67.957031 31.066406 67.574219 31.890625 C 67.167969 32.734375 66.964844 33.726562 66.96875 34.871094 C 66.96875 36.019531 67.171875 37.011719 67.574219 37.851562 C 67.953125 38.6875 68.527344 39.34375 69.296875 39.832031 C 70.097656 40.316406 70.964844 40.546875 71.898438 40.527344 C 72.832031 40.546875 73.691406 40.3125 74.488281 39.820312 C 75.25 39.328125 75.820312 38.667969 76.199219 37.84375 C 76.605469 36.996094 76.808594 36.007812 76.808594 34.871094 Z M 76.808594 34.871094 " fill-opacity="1" fill-rule="nonzero"/><path fill="#1e789f" d="M 87.761719 42.640625 C 86.332031 42.640625 85.082031 42.320312 84.007812 41.675781 C 82.910156 41.019531 82.078125 40.113281 81.511719 38.964844 C 80.921875 37.796875 80.625 36.441406 80.625 34.894531 C 80.625 33.347656 80.929688 31.984375 81.535156 30.8125 C 82.125 29.660156 82.972656 28.757812 84.085938 28.101562 C 85.175781 27.453125 86.4375 27.128906 87.867188 27.128906 C 88.945312 27.113281 89.976562 27.324219 90.960938 27.761719 C 91.871094 28.167969 92.632812 28.765625 93.25 29.550781 C 93.875 30.359375 94.265625 31.269531 94.425781 32.285156 L 92.089844 32.285156 C 91.847656 31.34375 91.332031 30.589844 90.546875 30.023438 C 89.789062 29.488281 88.875 29.21875 87.800781 29.21875 C 86.871094 29.195312 86.007812 29.429688 85.210938 29.921875 C 84.453125 30.410156 83.886719 31.066406 83.511719 31.890625 C 83.113281 32.734375 82.914062 33.726562 82.914062 34.871094 C 82.914062 36.019531 83.117188 37.011719 83.523438 37.851562 C 83.898438 38.683594 84.46875 39.34375 85.234375 39.832031 C 86.027344 40.316406 86.882812 40.546875 87.808594 40.527344 C 88.882812 40.527344 89.8125 40.261719 90.59375 39.726562 C 91.386719 39.203125 91.917969 38.480469 92.183594 37.5625 L 94.472656 37.5625 C 94.28125 38.550781 93.863281 39.4375 93.226562 40.214844 C 92.582031 40.992188 91.804688 41.585938 90.886719 41.996094 C 89.890625 42.441406 88.851562 42.65625 87.761719 42.640625 Z M 87.761719 42.640625 " fill-opacity="1" fill-rule="nonzero"/><path fill="#1e789f" d="M 105.597656 42.390625 L 96.414062 42.390625 L 96.414062 27.375 L 105.574219 27.375 L 105.574219 29.382812 L 97.671875 29.382812 L 98.601562 28.554688 L 98.601562 33.851562 L 104.875 33.851562 L 104.875 35.800781 L 98.601562 35.800781 L 98.601562 41.214844 L 97.671875 40.363281 L 105.597656 40.363281 Z M 105.597656 42.390625 " fill-opacity="1" fill-rule="nonzero"/><path fill="#1e789f" d="M 109.722656 42.390625 L 107.535156 42.390625 L 107.535156 27.375 L 113.210938 27.375 C 114.832031 27.375 116.101562 27.773438 117.015625 28.574219 C 117.929688 29.375 118.386719 30.496094 118.386719 31.933594 C 118.386719 32.96875 118.140625 33.84375 117.644531 34.554688 C 117.109375 35.304688 116.410156 35.828125 115.539062 36.121094 L 118.511719 42.394531 L 116.117188 42.394531 L 113.375 36.535156 L 109.722656 36.535156 Z M 109.722656 29.324219 L 109.722656 34.605469 L 113.210938 34.605469 C 114.117188 34.605469 114.824219 34.371094 115.335938 33.894531 C 115.84375 33.417969 116.101562 32.769531 116.097656 31.953125 C 116.097656 31.097656 115.839844 30.445312 115.328125 29.996094 C 114.8125 29.546875 114.105469 29.324219 113.210938 29.324219 Z M 109.722656 29.324219 " fill-opacity="1" fill-rule="nonzero"/><path fill="#1e789f" d="M 119.25 29.382812 L 119.25 27.375 L 130.347656 27.375 L 130.347656 29.382812 Z M 125.890625 28.390625 L 125.890625 42.390625 L 123.703125 42.390625 L 123.703125 28.390625 Z M 125.890625 28.390625 " fill-opacity="1" fill-rule="nonzero"/><path fill="#818387" d="M 54.8125 60.128906 C 54.8125 60.183594 54.808594 60.238281 54.804688 60.292969 C 54.796875 60.332031 54.789062 60.371094 54.769531 60.40625 C 54.757812 60.433594 54.742188 60.453125 54.714844 60.46875 C 54.695312 60.480469 54.671875 60.488281 54.644531 60.488281 L 52.851562 60.488281 L 52.851562 66.042969 C 52.851562 66.070312 52.84375 66.09375 52.832031 66.113281 C 52.8125 66.136719 52.789062 66.152344 52.761719 66.160156 C 52.722656 66.171875 52.679688 66.183594 52.632812 66.1875 C 52.566406 66.199219 52.496094 66.203125 52.429688 66.203125 C 52.363281 66.203125 52.292969 66.199219 52.226562 66.1875 C 52.183594 66.183594 52.140625 66.171875 52.097656 66.160156 C 52.070312 66.152344 52.046875 66.136719 52.027344 66.113281 C 52.015625 66.089844 52.007812 66.070312 52.011719 66.042969 L 52.011719 60.488281 L 50.210938 60.488281 C 50.183594 60.488281 50.160156 60.480469 50.136719 60.46875 C 50.113281 60.453125 50.097656 60.433594 50.085938 60.40625 C 50.070312 60.371094 50.058594 60.332031 50.054688 60.292969 C 50.046875 60.238281 50.039062 60.183594 50.042969 60.128906 C 50.042969 60.074219 50.046875 60.019531 50.054688 59.964844 C 50.058594 59.925781 50.070312 59.886719 50.085938 59.847656 C 50.097656 59.820312 50.113281 59.800781 50.136719 59.785156 C 50.160156 59.769531 50.183594 59.765625 50.210938 59.765625 L 54.644531 59.765625 C 54.671875 59.765625 54.695312 59.769531 54.714844 59.785156 C 54.742188 59.800781 54.757812 59.820312 54.769531 59.847656 C 54.789062 59.886719 54.796875 59.925781 54.804688 59.964844 C 54.808594 60.019531 54.8125 60.074219 54.8125 60.128906 Z M 54.8125 60.128906 " fill-opacity="1" fill-rule="nonzero"/><path fill="#818387" d="M 56.425781 66.039062 C 56.425781 66.0625 56.417969 66.085938 56.40625 66.109375 C 56.386719 66.132812 56.363281 66.148438 56.335938 66.15625 C 56.296875 66.167969 56.253906 66.179688 56.207031 66.183594 C 56.140625 66.195312 56.074219 66.199219 56.003906 66.195312 C 55.9375 66.199219 55.867188 66.195312 55.800781 66.183594 C 55.757812 66.179688 55.714844 66.167969 55.671875 66.15625 C 55.644531 66.148438 55.621094 66.132812 55.605469 66.109375 C 55.589844 66.085938 55.582031 66.0625 55.585938 66.039062 L 55.585938 59.894531 C 55.582031 59.867188 55.589844 59.84375 55.605469 59.824219 C 55.625 59.800781 55.652344 59.785156 55.679688 59.777344 C 55.722656 59.765625 55.765625 59.753906 55.808594 59.746094 C 55.875 59.738281 55.9375 59.734375 56.003906 59.734375 C 56.074219 59.734375 56.140625 59.738281 56.207031 59.746094 C 56.253906 59.753906 56.296875 59.765625 56.335938 59.777344 C 56.363281 59.785156 56.386719 59.800781 56.40625 59.824219 C 56.417969 59.84375 56.425781 59.867188 56.425781 59.894531 Z M 56.425781 66.039062 " fill-opacity="1" fill-rule="nonzero"/><path fill="#818387" d="M 62.652344 65.816406 C 62.65625 65.875 62.644531 65.929688 62.621094 65.984375 C 62.597656 66.027344 62.570312 66.066406 62.53125 66.097656 C 62.496094 66.128906 62.457031 66.148438 62.414062 66.164062 C 62.371094 66.175781 62.328125 66.179688 62.285156 66.179688 L 62.003906 66.179688 C 61.925781 66.183594 61.847656 66.171875 61.773438 66.15625 C 61.703125 66.136719 61.640625 66.101562 61.585938 66.054688 C 61.515625 66 61.457031 65.933594 61.40625 65.859375 C 61.335938 65.757812 61.273438 65.652344 61.214844 65.542969 L 59.269531 61.902344 C 59.167969 61.714844 59.066406 61.515625 58.960938 61.3125 C 58.859375 61.109375 58.761719 60.90625 58.671875 60.710938 L 58.664062 60.710938 C 58.671875 60.945312 58.675781 61.191406 58.679688 61.4375 C 58.679688 61.683594 58.679688 61.929688 58.679688 62.175781 L 58.679688 66.039062 C 58.679688 66.0625 58.671875 66.085938 58.65625 66.105469 C 58.640625 66.128906 58.617188 66.144531 58.585938 66.15625 C 58.542969 66.167969 58.5 66.179688 58.457031 66.183594 C 58.390625 66.195312 58.320312 66.199219 58.253906 66.195312 C 58.183594 66.199219 58.117188 66.195312 58.046875 66.183594 C 58.003906 66.179688 57.960938 66.167969 57.917969 66.15625 C 57.890625 66.144531 57.867188 66.128906 57.851562 66.105469 C 57.839844 66.085938 57.832031 66.0625 57.828125 66.039062 L 57.828125 60.128906 C 57.820312 60.015625 57.855469 59.921875 57.941406 59.847656 C 58.015625 59.792969 58.09375 59.765625 58.1875 59.765625 L 58.601562 59.765625 C 58.6875 59.761719 58.769531 59.769531 58.851562 59.789062 C 58.914062 59.804688 58.972656 59.832031 59.027344 59.871094 C 59.085938 59.914062 59.136719 59.96875 59.179688 60.03125 C 59.238281 60.113281 59.289062 60.199219 59.335938 60.289062 L 60.832031 63.097656 C 60.925781 63.269531 61.011719 63.4375 61.097656 63.601562 C 61.183594 63.765625 61.265625 63.925781 61.347656 64.082031 C 61.425781 64.242188 61.503906 64.398438 61.582031 64.550781 C 61.660156 64.703125 61.734375 64.859375 61.8125 65.011719 C 61.804688 64.753906 61.800781 64.484375 61.800781 64.199219 C 61.800781 63.917969 61.800781 63.644531 61.800781 63.386719 L 61.800781 59.90625 C 61.800781 59.882812 61.808594 59.863281 61.820312 59.84375 C 61.839844 59.820312 61.863281 59.804688 61.890625 59.792969 C 61.933594 59.773438 61.976562 59.765625 62.019531 59.757812 C 62.089844 59.753906 62.160156 59.75 62.230469 59.75 C 62.296875 59.75 62.363281 59.753906 62.429688 59.757812 C 62.472656 59.765625 62.515625 59.773438 62.558594 59.792969 C 62.582031 59.804688 62.605469 59.820312 62.625 59.84375 C 62.636719 59.863281 62.644531 59.882812 62.644531 59.90625 Z M 62.652344 65.816406 " fill-opacity="1" fill-rule="nonzero"/><path fill="#818387" d="M 67.609375 65.816406 C 67.609375 65.867188 67.605469 65.921875 67.601562 65.972656 C 67.59375 66.011719 67.582031 66.046875 67.566406 66.082031 C 67.550781 66.109375 67.535156 66.128906 67.507812 66.148438 C 67.488281 66.160156 67.464844 66.167969 67.4375 66.167969 L 64.378906 66.167969 C 64.296875 66.167969 64.226562 66.140625 64.164062 66.089844 C 64.082031 66.015625 64.050781 65.925781 64.0625 65.820312 L 64.0625 60.109375 C 64.050781 60.003906 64.082031 59.914062 64.164062 59.839844 C 64.226562 59.792969 64.296875 59.765625 64.378906 59.765625 L 67.402344 59.765625 C 67.429688 59.765625 67.453125 59.769531 67.472656 59.785156 C 67.496094 59.800781 67.515625 59.820312 67.527344 59.847656 C 67.542969 59.882812 67.550781 59.921875 67.558594 59.960938 C 67.566406 60.015625 67.570312 60.070312 67.570312 60.125 C 67.570312 60.179688 67.566406 60.230469 67.558594 60.28125 C 67.550781 60.320312 67.542969 60.355469 67.527344 60.390625 C 67.515625 60.417969 67.496094 60.4375 67.472656 60.453125 C 67.453125 60.464844 67.429688 60.472656 67.402344 60.472656 L 64.910156 60.472656 L 64.910156 62.480469 L 67.046875 62.480469 C 67.074219 62.480469 67.097656 62.488281 67.121094 62.503906 C 67.140625 62.519531 67.160156 62.539062 67.175781 62.566406 C 67.191406 62.597656 67.203125 62.636719 67.207031 62.671875 C 67.214844 62.726562 67.214844 62.78125 67.214844 62.835938 C 67.214844 62.890625 67.214844 62.941406 67.207031 62.992188 C 67.203125 63.027344 67.191406 63.0625 67.175781 63.09375 C 67.160156 63.117188 67.144531 63.136719 67.121094 63.152344 C 67.097656 63.164062 67.074219 63.167969 67.046875 63.167969 L 64.910156 63.167969 L 64.910156 65.460938 L 67.4375 65.460938 C 67.464844 65.460938 67.488281 65.464844 67.507812 65.480469 C 67.53125 65.496094 67.550781 65.515625 67.566406 65.539062 C 67.585938 65.574219 67.597656 65.613281 67.601562 65.652344 C 67.609375 65.707031 67.609375 65.761719 67.609375 65.816406 Z M 67.609375 65.816406 " fill-opacity="1" fill-rule="nonzero"/><path fill="#818387" d="M 72.972656 65.859375 C 73.007812 65.914062 73.035156 65.972656 73.050781 66.03125 C 73.0625 66.074219 73.050781 66.109375 73.015625 66.136719 C 72.972656 66.164062 72.925781 66.179688 72.871094 66.183594 C 72.78125 66.195312 72.691406 66.199219 72.601562 66.195312 C 72.5 66.195312 72.417969 66.195312 72.355469 66.1875 C 72.308594 66.1875 72.261719 66.175781 72.21875 66.164062 C 72.15625 66.144531 72.113281 66.105469 72.089844 66.042969 L 70.671875 63.496094 L 69.238281 66.042969 C 69.222656 66.070312 69.207031 66.09375 69.183594 66.117188 C 69.160156 66.140625 69.132812 66.15625 69.101562 66.164062 C 69.058594 66.179688 69.011719 66.1875 68.964844 66.1875 C 68.902344 66.1875 68.824219 66.195312 68.726562 66.195312 C 68.640625 66.199219 68.554688 66.195312 68.46875 66.183594 C 68.421875 66.179688 68.378906 66.164062 68.339844 66.136719 C 68.3125 66.105469 68.304688 66.070312 68.316406 66.03125 C 68.332031 65.972656 68.359375 65.914062 68.394531 65.859375 L 70.128906 62.921875 L 68.46875 60.078125 C 68.4375 60.023438 68.410156 59.964844 68.390625 59.902344 C 68.378906 59.863281 68.386719 59.828125 68.414062 59.800781 C 68.457031 59.769531 68.5 59.753906 68.550781 59.753906 C 68.617188 59.746094 68.707031 59.742188 68.824219 59.742188 C 68.941406 59.742188 69.003906 59.742188 69.066406 59.75 C 69.113281 59.753906 69.164062 59.761719 69.214844 59.773438 C 69.246094 59.78125 69.269531 59.800781 69.292969 59.824219 L 69.34375 59.894531 L 70.714844 62.289062 L 72.078125 59.894531 C 72.089844 59.871094 72.109375 59.847656 72.125 59.824219 C 72.144531 59.800781 72.167969 59.785156 72.199219 59.773438 C 72.238281 59.761719 72.28125 59.753906 72.328125 59.75 C 72.382812 59.75 72.453125 59.742188 72.554688 59.742188 C 72.636719 59.742188 72.71875 59.746094 72.800781 59.753906 C 72.851562 59.757812 72.898438 59.773438 72.941406 59.800781 C 72.96875 59.828125 72.980469 59.863281 72.972656 59.902344 C 72.957031 59.964844 72.9375 60.023438 72.902344 60.078125 L 71.246094 62.90625 Z M 72.972656 65.859375 " fill-opacity="1" fill-rule="nonzero"/><path fill="#818387" d="M 78.277344 60.128906 C 78.277344 60.183594 78.273438 60.238281 78.265625 60.292969 C 78.261719 60.332031 78.25 60.371094 78.234375 60.40625 C 78.222656 60.433594 78.203125 60.453125 78.179688 60.46875 C 78.15625 60.480469 78.132812 60.488281 78.109375 60.488281 L 76.316406 60.488281 L 76.316406 66.042969 C 76.316406 66.070312 76.308594 66.09375 76.292969 66.113281 C 76.277344 66.136719 76.253906 66.152344 76.226562 66.160156 C 76.183594 66.171875 76.140625 66.183594 76.097656 66.1875 C 76.03125 66.199219 75.960938 66.203125 75.894531 66.203125 C 75.824219 66.203125 75.757812 66.199219 75.691406 66.1875 C 75.648438 66.183594 75.605469 66.171875 75.5625 66.160156 C 75.535156 66.152344 75.511719 66.136719 75.492188 66.113281 C 75.480469 66.089844 75.472656 66.070312 75.472656 66.042969 L 75.472656 60.488281 L 73.671875 60.488281 C 73.648438 60.488281 73.625 60.480469 73.601562 60.46875 C 73.578125 60.453125 73.5625 60.433594 73.550781 60.40625 C 73.535156 60.371094 73.523438 60.332031 73.519531 60.292969 C 73.507812 60.238281 73.503906 60.183594 73.503906 60.128906 C 73.503906 60.074219 73.507812 60.019531 73.519531 59.964844 C 73.523438 59.925781 73.535156 59.886719 73.550781 59.847656 C 73.5625 59.820312 73.578125 59.800781 73.601562 59.785156 C 73.625 59.769531 73.648438 59.765625 73.671875 59.765625 L 78.109375 59.765625 C 78.132812 59.765625 78.15625 59.769531 78.179688 59.785156 C 78.203125 59.800781 78.222656 59.820312 78.234375 59.847656 C 78.25 59.886719 78.261719 59.925781 78.265625 59.964844 C 78.273438 60.019531 78.277344 60.074219 78.277344 60.128906 Z M 78.277344 60.128906 " fill-opacity="1" fill-rule="nonzero"/><path fill="#818387" d="M 83.105469 65.863281 C 83.128906 65.921875 83.144531 65.980469 83.148438 66.039062 C 83.152344 66.082031 83.140625 66.113281 83.109375 66.144531 C 83.074219 66.171875 83.03125 66.183594 82.980469 66.1875 C 82.902344 66.195312 82.820312 66.199219 82.738281 66.195312 C 82.636719 66.195312 82.554688 66.195312 82.496094 66.1875 C 82.449219 66.1875 82.402344 66.179688 82.355469 66.164062 C 82.328125 66.15625 82.304688 66.140625 82.285156 66.117188 C 82.269531 66.09375 82.257812 66.070312 82.246094 66.042969 L 81.699219 64.484375 L 79.046875 64.484375 L 78.523438 66.023438 C 78.515625 66.050781 78.5 66.074219 78.484375 66.097656 C 78.464844 66.121094 78.441406 66.140625 78.410156 66.152344 C 78.371094 66.171875 78.328125 66.183594 78.28125 66.183594 C 78.207031 66.191406 78.132812 66.195312 78.058594 66.195312 C 77.980469 66.195312 77.902344 66.191406 77.824219 66.183594 C 77.777344 66.179688 77.734375 66.164062 77.695312 66.136719 C 77.667969 66.109375 77.65625 66.074219 77.660156 66.035156 C 77.667969 65.972656 77.683594 65.914062 77.703125 65.859375 L 79.84375 59.914062 C 79.855469 59.882812 79.871094 59.851562 79.894531 59.824219 C 79.921875 59.800781 79.953125 59.78125 79.988281 59.769531 C 80.039062 59.757812 80.09375 59.746094 80.144531 59.742188 C 80.210938 59.742188 80.289062 59.734375 80.390625 59.734375 C 80.488281 59.734375 80.582031 59.734375 80.648438 59.742188 C 80.703125 59.746094 80.761719 59.757812 80.816406 59.769531 C 80.851562 59.78125 80.886719 59.800781 80.914062 59.828125 C 80.9375 59.855469 80.957031 59.886719 80.96875 59.917969 Z M 80.363281 60.617188 L 79.261719 63.804688 L 81.480469 63.804688 Z M 80.363281 60.617188 " fill-opacity="1" fill-rule="nonzero"/><path fill="#818387" d="M 91.242188 60.636719 C 91.242188 60.691406 91.238281 60.746094 91.230469 60.800781 C 91.226562 60.839844 91.21875 60.882812 91.203125 60.917969 C 91.195312 60.945312 91.175781 60.96875 91.152344 60.988281 C 91.132812 61 91.113281 61.007812 91.089844 61.007812 C 91.015625 60.992188 90.949219 60.960938 90.890625 60.910156 C 90.773438 60.835938 90.652344 60.765625 90.523438 60.707031 C 90.34375 60.621094 90.160156 60.550781 89.96875 60.496094 C 89.714844 60.429688 89.457031 60.398438 89.195312 60.402344 C 88.867188 60.398438 88.550781 60.460938 88.25 60.59375 C 87.972656 60.722656 87.738281 60.898438 87.539062 61.128906 C 87.335938 61.371094 87.1875 61.640625 87.09375 61.941406 C 86.875 62.644531 86.882812 63.347656 87.109375 64.050781 C 87.210938 64.347656 87.367188 64.617188 87.578125 64.851562 C 87.78125 65.070312 88.019531 65.234375 88.296875 65.34375 C 88.589844 65.460938 88.894531 65.515625 89.210938 65.511719 C 89.414062 65.511719 89.613281 65.488281 89.808594 65.441406 C 90.007812 65.394531 90.195312 65.324219 90.375 65.226562 L 90.375 63.363281 L 88.902344 63.363281 C 88.835938 63.367188 88.792969 63.339844 88.773438 63.277344 C 88.738281 63.195312 88.726562 63.109375 88.730469 63.019531 C 88.730469 62.964844 88.734375 62.910156 88.742188 62.859375 C 88.746094 62.820312 88.753906 62.785156 88.773438 62.75 C 88.785156 62.722656 88.800781 62.703125 88.824219 62.6875 C 88.847656 62.671875 88.871094 62.667969 88.898438 62.667969 L 90.933594 62.667969 C 90.96875 62.667969 91.003906 62.675781 91.039062 62.6875 C 91.078125 62.699219 91.109375 62.722656 91.140625 62.746094 C 91.171875 62.777344 91.195312 62.8125 91.210938 62.855469 C 91.226562 62.90625 91.234375 62.960938 91.234375 63.015625 L 91.234375 65.453125 C 91.234375 65.53125 91.21875 65.605469 91.1875 65.675781 C 91.144531 65.753906 91.082031 65.808594 91 65.839844 C 90.90625 65.890625 90.78125 65.941406 90.632812 66 C 90.480469 66.054688 90.324219 66.101562 90.164062 66.140625 C 90.003906 66.179688 89.839844 66.210938 89.675781 66.230469 C 89.515625 66.25 89.351562 66.261719 89.1875 66.261719 C 88.730469 66.265625 88.289062 66.1875 87.863281 66.023438 C 87.484375 65.878906 87.15625 65.660156 86.878906 65.367188 C 86.601562 65.070312 86.398438 64.730469 86.265625 64.347656 C 86.117188 63.917969 86.046875 63.476562 86.054688 63.019531 C 86.046875 62.546875 86.125 62.085938 86.28125 61.640625 C 86.421875 61.246094 86.636719 60.894531 86.925781 60.585938 C 87.210938 60.289062 87.542969 60.066406 87.925781 59.910156 C 88.339844 59.746094 88.773438 59.664062 89.21875 59.671875 C 89.449219 59.671875 89.679688 59.691406 89.902344 59.734375 C 90.097656 59.773438 90.289062 59.824219 90.472656 59.886719 C 90.621094 59.9375 90.757812 59.996094 90.890625 60.074219 C 90.976562 60.121094 91.054688 60.175781 91.125 60.238281 C 91.167969 60.28125 91.199219 60.332031 91.214844 60.390625 C 91.234375 60.46875 91.246094 60.550781 91.242188 60.636719 Z M 91.242188 60.636719 " fill-opacity="1" fill-rule="nonzero"/><path fill="#818387" d="M 96.796875 66.039062 C 96.796875 66.0625 96.792969 66.085938 96.78125 66.109375 C 96.765625 66.132812 96.746094 66.148438 96.71875 66.15625 C 96.671875 66.171875 96.628906 66.183594 96.582031 66.1875 C 96.5 66.195312 96.421875 66.199219 96.34375 66.195312 C 96.273438 66.199219 96.203125 66.195312 96.132812 66.1875 C 96.089844 66.183594 96.046875 66.171875 96.003906 66.15625 C 95.972656 66.140625 95.945312 66.121094 95.925781 66.09375 C 95.90625 66.0625 95.890625 66.027344 95.882812 65.996094 L 95.292969 64.484375 C 95.226562 64.3125 95.152344 64.15625 95.082031 64.011719 C 95.011719 63.875 94.921875 63.75 94.816406 63.640625 C 94.714844 63.535156 94.59375 63.453125 94.457031 63.398438 C 94.296875 63.335938 94.128906 63.308594 93.957031 63.3125 L 93.390625 63.3125 L 93.390625 66.039062 C 93.390625 66.0625 93.386719 66.085938 93.371094 66.109375 C 93.351562 66.128906 93.328125 66.144531 93.300781 66.15625 C 93.257812 66.167969 93.214844 66.179688 93.171875 66.183594 C 93.035156 66.203125 92.898438 66.203125 92.761719 66.183594 C 92.71875 66.179688 92.675781 66.167969 92.632812 66.15625 C 92.605469 66.148438 92.582031 66.132812 92.566406 66.109375 C 92.550781 66.085938 92.546875 66.0625 92.546875 66.039062 L 92.546875 60.109375 C 92.535156 60.003906 92.566406 59.914062 92.648438 59.839844 C 92.710938 59.792969 92.78125 59.765625 92.863281 59.765625 L 94.214844 59.765625 C 94.375 59.765625 94.507812 59.765625 94.617188 59.777344 C 94.722656 59.789062 94.816406 59.792969 94.90625 59.804688 C 95.132812 59.839844 95.347656 59.910156 95.558594 60.007812 C 95.738281 60.09375 95.898438 60.210938 96.03125 60.359375 C 96.160156 60.5 96.257812 60.664062 96.320312 60.847656 C 96.386719 61.042969 96.417969 61.246094 96.417969 61.453125 C 96.417969 61.648438 96.390625 61.839844 96.332031 62.027344 C 96.273438 62.195312 96.191406 62.34375 96.082031 62.476562 C 95.972656 62.613281 95.84375 62.726562 95.695312 62.816406 C 95.535156 62.917969 95.367188 63 95.1875 63.058594 C 95.292969 63.105469 95.386719 63.164062 95.472656 63.234375 C 95.5625 63.3125 95.644531 63.398438 95.714844 63.492188 C 95.792969 63.601562 95.863281 63.714844 95.921875 63.835938 C 95.988281 63.964844 96.050781 64.109375 96.121094 64.269531 L 96.691406 65.679688 C 96.738281 65.800781 96.765625 65.882812 96.78125 65.929688 C 96.789062 65.964844 96.796875 66 96.796875 66.039062 Z M 95.519531 61.542969 C 95.527344 61.3125 95.472656 61.101562 95.351562 60.90625 C 95.210938 60.710938 95.027344 60.585938 94.792969 60.53125 C 94.699219 60.507812 94.605469 60.492188 94.511719 60.480469 C 94.410156 60.472656 94.273438 60.46875 94.105469 60.46875 L 93.390625 60.46875 L 93.390625 62.625 L 94.21875 62.625 C 94.414062 62.628906 94.609375 62.601562 94.796875 62.542969 C 94.949219 62.496094 95.085938 62.417969 95.203125 62.316406 C 95.3125 62.21875 95.390625 62.105469 95.445312 61.972656 C 95.496094 61.832031 95.519531 61.691406 95.519531 61.542969 Z M 95.519531 61.542969 " fill-opacity="1" fill-rule="nonzero"/><path fill="#818387" d="M 103.03125 62.890625 C 103.035156 63.367188 102.976562 63.835938 102.847656 64.292969 C 102.742188 64.683594 102.558594 65.039062 102.304688 65.351562 C 102.054688 65.648438 101.753906 65.875 101.394531 66.023438 C 100.988281 66.1875 100.5625 66.265625 100.121094 66.257812 C 99.691406 66.265625 99.277344 66.195312 98.875 66.042969 C 98.535156 65.90625 98.246094 65.699219 98.007812 65.417969 C 97.761719 65.113281 97.589844 64.773438 97.492188 64.398438 C 97.375 63.9375 97.320312 63.472656 97.328125 62.996094 C 97.324219 62.53125 97.386719 62.074219 97.511719 61.628906 C 97.621094 61.238281 97.804688 60.890625 98.058594 60.578125 C 98.3125 60.28125 98.613281 60.058594 98.972656 59.910156 C 99.804688 59.59375 100.636719 59.585938 101.476562 59.886719 C 101.816406 60.023438 102.105469 60.230469 102.34375 60.507812 C 102.589844 60.804688 102.761719 61.144531 102.859375 61.519531 C 102.980469 61.96875 103.035156 62.425781 103.03125 62.890625 Z M 102.128906 62.949219 C 102.132812 62.609375 102.101562 62.273438 102.035156 61.9375 C 101.980469 61.648438 101.871094 61.378906 101.714844 61.128906 C 101.5625 60.894531 101.363281 60.714844 101.117188 60.589844 C 100.824219 60.453125 100.515625 60.386719 100.191406 60.398438 C 99.867188 60.386719 99.558594 60.457031 99.265625 60.605469 C 99.019531 60.742188 98.816406 60.925781 98.660156 61.160156 C 98.496094 61.40625 98.382812 61.675781 98.324219 61.96875 C 98.253906 62.289062 98.222656 62.613281 98.222656 62.941406 C 98.21875 63.289062 98.25 63.632812 98.316406 63.972656 C 98.367188 64.269531 98.472656 64.539062 98.628906 64.792969 C 98.78125 65.027344 98.976562 65.203125 99.222656 65.328125 C 99.519531 65.464844 99.832031 65.53125 100.15625 65.519531 C 100.488281 65.527344 100.796875 65.460938 101.09375 65.3125 C 101.34375 65.175781 101.546875 64.988281 101.703125 64.75 C 101.863281 64.496094 101.972656 64.222656 102.03125 63.929688 C 102.097656 63.609375 102.132812 63.28125 102.128906 62.949219 Z M 102.128906 62.949219 " fill-opacity="1" fill-rule="nonzero"/><path fill="#818387" d="M 108.898438 63.800781 C 108.90625 64.160156 108.847656 64.507812 108.730469 64.84375 C 108.625 65.136719 108.460938 65.398438 108.242188 65.621094 C 108.023438 65.835938 107.765625 65.996094 107.472656 66.097656 C 107.136719 66.214844 106.792969 66.269531 106.441406 66.261719 C 106.113281 66.265625 105.792969 66.214844 105.480469 66.109375 C 105.199219 66.011719 104.953125 65.863281 104.738281 65.65625 C 104.519531 65.441406 104.359375 65.191406 104.257812 64.90625 C 104.140625 64.570312 104.085938 64.226562 104.089844 63.871094 L 104.089844 59.894531 C 104.089844 59.867188 104.097656 59.84375 104.109375 59.824219 C 104.128906 59.800781 104.152344 59.785156 104.179688 59.777344 C 104.222656 59.761719 104.265625 59.753906 104.308594 59.746094 C 104.445312 59.730469 104.582031 59.730469 104.71875 59.746094 C 104.761719 59.753906 104.804688 59.761719 104.847656 59.777344 C 104.875 59.785156 104.894531 59.800781 104.914062 59.824219 C 104.925781 59.84375 104.933594 59.867188 104.933594 59.894531 L 104.933594 63.761719 C 104.929688 64.027344 104.964844 64.285156 105.042969 64.539062 C 105.105469 64.746094 105.210938 64.929688 105.355469 65.089844 C 105.492188 65.238281 105.65625 65.347656 105.847656 65.421875 C 106.054688 65.5 106.269531 65.535156 106.492188 65.53125 C 106.71875 65.535156 106.9375 65.5 107.148438 65.421875 C 107.339844 65.355469 107.5 65.246094 107.636719 65.097656 C 107.777344 64.9375 107.878906 64.757812 107.941406 64.558594 C 108.019531 64.3125 108.054688 64.0625 108.046875 63.804688 L 108.046875 59.894531 C 108.046875 59.867188 108.054688 59.84375 108.070312 59.824219 C 108.085938 59.800781 108.109375 59.785156 108.136719 59.777344 C 108.179688 59.765625 108.222656 59.753906 108.265625 59.746094 C 108.332031 59.738281 108.402344 59.734375 108.46875 59.734375 C 108.535156 59.734375 108.605469 59.738281 108.667969 59.746094 C 108.714844 59.753906 108.757812 59.761719 108.796875 59.777344 C 108.824219 59.785156 108.847656 59.800781 108.867188 59.824219 C 108.882812 59.84375 108.890625 59.867188 108.890625 59.894531 Z M 108.898438 63.800781 " fill-opacity="1" fill-rule="nonzero"/><path fill="#818387" d="M 114.203125 61.640625 C 114.207031 61.9375 114.152344 62.226562 114.042969 62.503906 C 113.941406 62.757812 113.792969 62.976562 113.59375 63.164062 C 113.382812 63.355469 113.140625 63.496094 112.875 63.585938 C 112.542969 63.691406 112.203125 63.742188 111.855469 63.734375 L 111.132812 63.734375 L 111.132812 66.039062 C 111.132812 66.0625 111.125 66.085938 111.109375 66.109375 C 111.089844 66.128906 111.066406 66.144531 111.039062 66.15625 C 111 66.167969 110.957031 66.179688 110.910156 66.183594 C 110.777344 66.203125 110.640625 66.203125 110.503906 66.183594 C 110.460938 66.179688 110.417969 66.167969 110.375 66.15625 C 110.347656 66.144531 110.324219 66.128906 110.304688 66.109375 C 110.292969 66.085938 110.285156 66.0625 110.285156 66.039062 L 110.285156 60.128906 C 110.277344 60.019531 110.308594 59.925781 110.390625 59.847656 C 110.457031 59.792969 110.535156 59.765625 110.621094 59.765625 L 111.988281 59.765625 C 112.125 59.765625 112.257812 59.765625 112.382812 59.78125 C 112.535156 59.796875 112.683594 59.824219 112.832031 59.855469 C 113.019531 59.898438 113.195312 59.96875 113.359375 60.066406 C 113.726562 60.277344 113.972656 60.582031 114.101562 60.984375 C 114.167969 61.195312 114.203125 61.414062 114.203125 61.640625 Z M 113.308594 61.710938 C 113.316406 61.480469 113.269531 61.261719 113.164062 61.054688 C 113.078125 60.894531 112.960938 60.765625 112.804688 60.667969 C 112.667969 60.582031 112.519531 60.53125 112.359375 60.503906 C 112.210938 60.480469 112.0625 60.46875 111.910156 60.464844 L 111.128906 60.464844 L 111.128906 63.035156 L 111.890625 63.035156 C 112.113281 63.042969 112.328125 63.007812 112.535156 62.933594 C 112.695312 62.875 112.839844 62.78125 112.960938 62.660156 C 113.078125 62.539062 113.164062 62.398438 113.21875 62.238281 C 113.28125 62.066406 113.308594 61.890625 113.308594 61.710938 Z M 113.308594 61.710938 " fill-opacity="1" fill-rule="nonzero"/></svg>