<svg xmlns="http://www.w3.org/2000/svg" xmlns:xlink="http://www.w3.org/1999/xlink" width="220" zoomAndPan="magnify" viewBox="0 0 165 82.499998" height="110" preserveAspectRatio="xMidYMid meet" version="1.0"><defs><clipPath id="52da210113"><path d="M 0.496094 0 L 164.503906 0 L 164.503906 82.003906 L 0.496094 82.003906 Z M 0.496094 0 " clip-rule="nonzero"/></clipPath><clipPath id="9a6debd46a"><path d="M 8.699219 23.503906 L 55 23.503906 L 55 58.542969 L 8.699219 58.542969 Z M 8.699219 23.503906 " clip-rule="nonzero"/></clipPath><clipPath id="8154bf476f"><path d="M 63 31 L 156.300781 31 L 156.300781 51 L 63 51 Z M 63 31 " clip-rule="nonzero"/></clipPath></defs><g clip-path="url(#52da210113)"><path fill="#ffffff" d="M 0.496094 0 L 164.503906 0 L 164.503906 89.457031 L 0.496094 89.457031 Z M 0.496094 0 " fill-opacity="1" fill-rule="nonzero"/><path fill="#ffffff" d="M 0.496094 0 L 164.503906 0 L 164.503906 82.003906 L 0.496094 82.003906 Z M 0.496094 0 " fill-opacity="1" fill-rule="nonzero"/><path fill="#ffffff" d="M 0.496094 0 L 164.503906 0 L 164.503906 82.003906 L 0.496094 82.003906 Z M 0.496094 0 " fill-opacity="1" fill-rule="nonzero"/></g><g clip-path="url(#9a6debd46a)"><path fill="#ee2335" d="M 47.21875 40.894531 C 47.632812 42.871094 47.632812 43.078125 47.632812 43.335938 C 47.632812 46.714844 43.84375 48.585938 38.863281 48.585938 C 27.601562 48.585938 17.742188 41.988281 17.742188 37.621094 C 17.742188 36.945312 17.898438 36.324219 18.105469 35.855469 C 14.058594 36.0625 8.816406 36.789062 8.816406 41.414062 C 8.816406 49 26.773438 58.351562 40.988281 58.351562 C 51.886719 58.351562 54.636719 53.417969 54.636719 49.519531 C 54.636719 46.453125 51.992188 42.972656 47.21875 40.894531 Z M 39.382812 43.648438 C 42.390625 43.648438 46.75 43.023438 46.75 39.441406 C 46.75 39.160156 46.742188 38.886719 46.675781 38.617188 L 44.882812 30.816406 C 44.46875 29.101562 44.105469 28.320312 41.09375 26.8125 C 38.757812 25.617188 33.671875 23.644531 32.167969 23.644531 C 30.769531 23.644531 30.351562 25.460938 28.691406 25.460938 C 27.082031 25.460938 25.890625 24.113281 24.386719 24.113281 C 22.933594 24.113281 22 25.097656 21.273438 27.125 C 21.273438 27.125 19.246094 32.839844 18.988281 33.671875 C 18.9375 33.828125 18.933594 34.003906 18.933594 34.140625 C 18.933594 36.363281 27.671875 43.648438 39.382812 43.648438 Z M 39.382812 43.648438 " fill-opacity="1" fill-rule="nonzero"/></g><path fill="#030404" d="M 47.21875 40.894531 C 47.632812 42.871094 47.632812 43.078125 47.632812 43.335938 C 47.632812 46.714844 43.84375 48.585938 38.863281 48.585938 C 27.601562 48.585938 17.742188 41.988281 17.742188 37.621094 C 17.742188 36.945312 17.898438 36.324219 18.105469 35.855469 L 18.988281 33.671875 C 18.9375 33.828125 18.933594 34.003906 18.933594 34.140625 C 18.933594 36.363281 27.671875 43.648438 39.382812 43.648438 C 42.390625 43.648438 46.75 43.023438 46.75 39.441406 C 46.75 39.160156 46.742188 38.886719 46.675781 38.617188 Z M 47.21875 40.894531 " fill-opacity="1" fill-rule="nonzero"/><g clip-path="url(#8154bf476f)"><path fill="#030404" d="M 63.101562 49.972656 L 67.457031 49.972656 L 67.457031 43.511719 L 70.773438 43.511719 L 74.113281 49.972656 L 78.976562 49.972656 L 75.078125 42.875 C 77.179688 41.964844 78.417969 40.0625 78.417969 37.882812 C 78.417969 34.6875 75.914062 32.230469 72.164062 32.230469 L 63.101562 32.230469 Z M 71.761719 35.957031 C 73.203125 35.957031 74.015625 36.867188 74.015625 37.957031 C 74.015625 39.050781 73.203125 39.960938 71.761719 39.960938 L 67.457031 39.960938 L 67.457031 35.957031 Z M 78.824219 43.28125 C 78.824219 47.1875 82.011719 50.226562 86.113281 50.226562 C 88.367188 50.226562 90.011719 49.621094 91.707031 48.199219 L 89 45.792969 C 88.367188 46.449219 87.429688 46.804688 86.316406 46.804688 C 84.796875 46.804688 83.558594 45.96875 83.027344 44.675781 L 92.570312 44.675781 L 92.570312 43.664062 C 92.570312 39.402344 89.707031 36.335938 85.8125 36.335938 C 81.886719 36.335938 78.824219 39.378906 78.824219 43.28125 Z M 85.734375 39.683594 C 87.027344 39.683594 88.113281 40.519531 88.542969 41.8125 L 82.949219 41.8125 C 83.355469 40.46875 84.367188 39.683594 85.734375 39.683594 Z M 104.316406 49.972656 L 108.367188 49.972656 L 108.367188 31.34375 L 104.265625 32.230469 L 104.265625 37.273438 C 103.253906 36.691406 102.085938 36.386719 100.847656 36.386719 C 96.949219 36.386719 93.886719 39.402344 93.886719 43.257812 C 93.886719 47.109375 96.898438 50.152344 100.722656 50.152344 C 102.039062 50.152344 103.277344 49.746094 104.316406 48.984375 Z M 97.910156 43.257812 C 97.910156 41.328125 99.429688 39.859375 101.429688 39.859375 C 102.542969 39.859375 103.554688 40.242188 104.265625 40.898438 L 104.265625 45.589844 C 103.53125 46.296875 102.570312 46.652344 101.429688 46.652344 C 99.457031 46.652344 97.910156 45.183594 97.910156 43.257812 Z M 114.503906 49.972656 L 118.859375 49.972656 L 118.859375 43.027344 L 126.148438 43.027344 L 126.148438 49.972656 L 130.503906 49.972656 L 130.503906 32.230469 L 126.148438 32.230469 L 126.148438 39.050781 L 118.859375 39.050781 L 118.859375 32.230469 L 114.503906 32.230469 Z M 136.753906 50.203125 C 138.199219 50.203125 139.363281 49.898438 140.453125 49.164062 L 140.453125 49.972656 L 144.5 49.972656 L 144.5 41.382812 C 144.5 38.109375 142.300781 36.3125 138.628906 36.3125 C 136.578125 36.3125 134.554688 36.792969 132.375 37.78125 L 133.84375 40.796875 C 135.414062 40.140625 136.730469 39.734375 137.894531 39.734375 C 139.589844 39.734375 140.453125 40.390625 140.453125 41.734375 L 140.453125 42.394531 C 139.488281 42.140625 138.476562 42.015625 137.414062 42.015625 C 133.96875 42.015625 131.894531 43.460938 131.894531 46.046875 C 131.894531 48.402344 133.769531 50.203125 136.753906 50.203125 Z M 135.503906 45.96875 C 135.503906 45.082031 136.390625 44.652344 137.730469 44.652344 C 138.617188 44.652344 139.429688 44.777344 140.160156 44.957031 L 140.160156 46.679688 C 139.402344 47.109375 138.515625 47.3125 137.605469 47.3125 C 136.289062 47.3125 135.503906 46.804688 135.503906 45.96875 Z M 148.25 45.894531 C 148.25 48.757812 149.96875 50.152344 153.109375 50.152344 C 153.867188 50.152344 155.183594 49.972656 155.96875 49.746094 L 155.96875 46.425781 C 155.285156 46.628906 154.78125 46.703125 154.121094 46.703125 C 152.832031 46.703125 152.347656 46.296875 152.347656 45.082031 L 152.347656 39.988281 L 156.097656 39.988281 L 156.097656 36.566406 L 152.347656 36.566406 L 152.347656 32.230469 L 148.25 33.117188 L 148.25 36.566406 L 145.539062 36.566406 L 145.539062 39.988281 L 148.25 39.988281 Z M 148.25 45.894531 " fill-opacity="1" fill-rule="nonzero"/></g></svg>