<svg xmlns="http://www.w3.org/2000/svg" xmlns:xlink="http://www.w3.org/1999/xlink" width="220" zoomAndPan="magnify" viewBox="0 0 165 82.499998" height="110" preserveAspectRatio="xMidYMid meet" version="1.0"><defs><clipPath id="7d22c6e297"><path d="M 0.496094 0 L 164.503906 0 L 164.503906 82.003906 L 0.496094 82.003906 Z M 0.496094 0 " clip-rule="nonzero"/></clipPath></defs><g clip-path="url(#7d22c6e297)"><path fill="#ffffff" d="M 0.496094 0 L 164.503906 0 L 164.503906 82.003906 L 0.496094 82.003906 Z M 0.496094 0 " fill-opacity="1" fill-rule="nonzero"/></g><path fill="#0067b7" d="M 25.511719 51.898438 C 19.035156 51.898438 13.675781 46.699219 13.675781 40.03125 C 13.675781 33.941406 18.078125 29.78125 21.535156 29.9375 C 19.898438 31.566406 18.90625 33.941406 18.90625 36.238281 C 18.90625 40.191406 22.046875 42.964844 25.511719 42.964844 C 28.972656 42.964844 32.117188 40.191406 32.117188 36.238281 C 32.117188 33.941406 31.121094 31.566406 29.484375 29.9375 C 32.945312 29.78125 37.34375 33.941406 37.34375 40.03125 C 37.34375 46.699219 31.984375 51.898438 25.511719 51.898438 M 25.511719 30.921875 C 26.714844 31.636719 28.304688 33.707031 28.304688 36.042969 C 28.304688 37.757812 27.171875 39.109375 25.511719 39.109375 C 23.851562 39.109375 22.714844 37.757812 22.714844 36.042969 C 22.714844 33.707031 24.308594 31.636719 25.511719 30.921875 M 29.3125 26.117188 C 27.894531 26.117188 26.496094 26.421875 25.511719 26.824219 C 24.527344 26.421875 23.128906 26.117188 21.710938 26.117188 C 15.460938 26.117188 9.820312 32.015625 9.820312 40.105469 C 9.820312 48.929688 17.039062 55.753906 25.511719 55.753906 C 33.980469 55.753906 41.203125 48.929688 41.203125 40.105469 C 41.203125 32.015625 35.558594 26.117188 29.3125 26.117188 " fill-opacity="1" fill-rule="evenodd"/><path fill="#0067b7" d="M 63.796875 32.867188 L 63.796875 36.089844 L 68.722656 36.089844 L 68.722656 48.1875 L 72.207031 48.1875 L 72.207031 36.089844 L 77.132812 36.089844 L 77.132812 32.867188 Z M 63.796875 32.867188 " fill-opacity="1" fill-rule="nonzero"/><path fill="#0067b7" d="M 116.125 44.914062 C 115.597656 44.914062 115.003906 44.644531 115.003906 43.328125 C 115.003906 42.015625 115.589844 41.785156 116.125 41.785156 L 122.695312 41.785156 L 122.695312 44.914062 Z M 121.1875 32.867188 L 112.40625 32.867188 L 112.40625 36.117188 L 120.953125 36.117188 C 122.207031 36.117188 122.695312 36.6875 122.695312 38.15625 L 122.695312 38.695312 L 115.613281 38.695312 C 112.921875 38.695312 111.582031 40.039062 111.582031 43.078125 L 111.582031 43.804688 C 111.582031 46.929688 112.96875 48.183594 115.761719 48.183594 L 126.148438 48.183594 L 126.148438 38.113281 C 126.148438 34.257812 124.871094 32.867188 121.1875 32.867188 " fill-opacity="1" fill-rule="nonzero"/><path fill="#0067b7" d="M 145.070312 44.914062 C 144.542969 44.914062 143.953125 44.644531 143.953125 43.328125 C 143.953125 42.015625 144.539062 41.785156 145.070312 41.785156 L 151.644531 41.785156 L 151.644531 44.914062 Z M 150.132812 32.867188 L 141.355469 32.867188 L 141.355469 36.117188 L 149.902344 36.117188 C 151.15625 36.117188 151.644531 36.6875 151.644531 38.15625 C 151.644531 38.164062 151.644531 38.570312 151.644531 38.695312 L 144.5625 38.695312 C 141.871094 38.695312 140.527344 40.039062 140.527344 43.078125 L 140.527344 43.804688 C 140.527344 46.929688 141.917969 48.183594 144.710938 48.183594 L 155.097656 48.183594 L 155.097656 38.113281 C 155.097656 34.257812 153.820312 32.867188 150.132812 32.867188 " fill-opacity="1" fill-rule="nonzero"/><path fill="#0067b7" d="M 78.242188 32.867188 L 78.242188 36.089844 L 83.164062 36.089844 L 83.164062 48.1875 L 86.652344 48.1875 L 86.652344 36.089844 L 91.578125 36.089844 L 91.578125 32.867188 Z M 78.242188 32.867188 " fill-opacity="1" fill-rule="nonzero"/><path fill="#0067b7" d="M 126.847656 32.867188 L 126.847656 36.089844 L 131.773438 36.089844 L 131.773438 48.1875 L 135.261719 48.1875 L 135.261719 36.089844 L 140.183594 36.089844 L 140.183594 32.867188 Z M 126.847656 32.867188 " fill-opacity="1" fill-rule="nonzero"/><path fill="#0067b7" d="M 106.667969 42.886719 C 106.667969 44.355469 106.171875 44.925781 104.917969 44.925781 L 99.304688 44.925781 L 99.304688 36.128906 L 104.917969 36.128906 C 106.171875 36.128906 106.667969 36.699219 106.667969 38.167969 Z M 110.226562 42.820312 L 110.226562 38.234375 C 110.226562 34.222656 108.667969 32.867188 105.152344 32.867188 L 95.816406 32.867188 L 95.816406 48.183594 L 105.316406 48.183594 C 109.046875 48.183594 110.226562 46.332031 110.226562 42.820312 " fill-opacity="1" fill-rule="nonzero"/><path fill="#0067b7" d="M 58.878906 44.539062 C 58.804688 44.398438 54.144531 35.335938 53.578125 34.441406 C 52.917969 33.414062 52.121094 32.695312 50.585938 32.695312 C 49.164062 32.695312 47.480469 33.328125 47.480469 36.738281 L 47.480469 48.191406 L 50.917969 48.191406 L 50.917969 38.636719 C 50.917969 37.953125 50.875 36.9375 50.867188 36.730469 C 50.859375 36.5625 50.867188 36.40625 50.949219 36.355469 C 51.050781 36.296875 51.148438 36.390625 51.214844 36.515625 C 51.28125 36.644531 55.601562 45.171875 56.519531 46.613281 C 57.175781 47.644531 57.976562 48.359375 59.507812 48.359375 C 60.929688 48.359375 62.617188 47.726562 62.617188 44.316406 L 62.617188 32.863281 L 59.179688 32.863281 L 59.179688 42.417969 C 59.179688 43.101562 59.21875 44.117188 59.230469 44.324219 C 59.238281 44.492188 59.230469 44.652344 59.144531 44.699219 C 59.046875 44.757812 58.949219 44.664062 58.878906 44.539062 " fill-opacity="1" fill-rule="nonzero"/></svg>