<svg xmlns="http://www.w3.org/2000/svg" xmlns:xlink="http://www.w3.org/1999/xlink" width="220" zoomAndPan="magnify" viewBox="0 0 165 82.499998" height="110" preserveAspectRatio="xMidYMid meet" version="1.0"><defs><clipPath id="d3105fb5cf"><path d="M 0.496094 0 L 164.503906 0 L 164.503906 82.003906 L 0.496094 82.003906 Z M 0.496094 0 " clip-rule="nonzero"/></clipPath><clipPath id="bdead1d8f8"><path d="M 7.433594 10.324219 L 157.277344 10.324219 L 157.277344 71.457031 L 7.433594 71.457031 Z M 7.433594 10.324219 " clip-rule="nonzero"/></clipPath></defs><g clip-path="url(#d3105fb5cf)"><path fill="#ffffff" d="M 0.496094 0 L 164.503906 0 L 164.503906 89.457031 L 0.496094 89.457031 Z M 0.496094 0 " fill-opacity="1" fill-rule="nonzero"/><path fill="#ffffff" d="M 0.496094 0 L 164.503906 0 L 164.503906 82.003906 L 0.496094 82.003906 Z M 0.496094 0 " fill-opacity="1" fill-rule="nonzero"/></g><g clip-path="url(#bdead1d8f8)"><path fill="#ffffff" d="M 7.511719 10.324219 L 157.199219 10.324219 L 157.199219 71.457031 L 7.511719 71.457031 Z M 7.511719 10.324219 " fill-opacity="1" fill-rule="nonzero"/></g><path fill="#1d1e1c" d="M 87.433594 39.492188 L 87.433594 47.074219 C 87.441406 47.277344 87.363281 47.476562 87.222656 47.621094 C 86.160156 48.808594 84.816406 49.710938 83.316406 50.238281 C 82.472656 50.535156 81.59375 50.703125 80.703125 50.742188 C 79.328125 50.832031 77.949219 50.710938 76.609375 50.390625 C 73.382812 49.550781 71.246094 47.5625 70.34375 44.363281 C 69.515625 41.609375 69.78125 38.640625 71.09375 36.078125 C 72.414062 33.460938 74.582031 31.871094 77.476562 31.300781 C 78.308594 31.136719 79.160156 31.058594 80.007812 31.070312 C 82.457031 31.070312 84.816406 31.988281 86.617188 33.644531 C 86.703125 33.722656 86.792969 33.796875 86.882812 33.878906 C 86.894531 33.878906 86.898438 33.910156 86.941406 33.996094 L 84.675781 36.121094 C 84.183594 35.8125 83.648438 35.421875 83.070312 35.121094 C 82.042969 34.578125 80.894531 34.3125 79.738281 34.347656 C 78.074219 34.390625 76.582031 34.90625 75.386719 36.097656 C 74.476562 37.011719 73.867188 38.175781 73.628906 39.441406 C 73.296875 40.863281 73.386719 42.355469 73.878906 43.730469 C 74.4375 45.320312 75.722656 46.550781 77.339844 47.039062 C 79.078125 47.589844 80.828125 47.644531 82.527344 46.910156 C 83.039062 46.652344 83.535156 46.355469 84.007812 46.023438 C 84.074219 45.976562 84.117188 45.902344 84.128906 45.820312 L 84.128906 42.679688 L 79.347656 42.679688 L 79.347656 39.488281 L 87.433594 39.488281 Z M 87.433594 39.492188 " fill-opacity="1" fill-rule="nonzero"/><path fill="#1d1e1c" d="M 105.769531 39.492188 L 105.769531 31.660156 L 109.347656 31.660156 L 109.347656 50.328125 L 105.785156 50.328125 L 105.785156 42.820312 L 96.578125 42.820312 L 96.578125 50.328125 L 92.996094 50.328125 L 92.996094 31.648438 L 96.5625 31.648438 L 96.5625 39.492188 Z M 105.769531 39.492188 " fill-opacity="1" fill-rule="nonzero"/><path fill="#1d1e1c" d="M 39.53125 46.191406 L 42.441406 44.6875 C 42.804688 45.214844 43.203125 45.714844 43.628906 46.191406 C 44.402344 46.90625 45.382812 47.363281 46.425781 47.5 C 47.679688 47.730469 48.972656 47.644531 50.183594 47.25 C 51.148438 46.929688 51.886719 46.382812 52.109375 45.320312 C 52.316406 44.375 51.859375 43.410156 50.996094 42.96875 C 50.109375 42.535156 49.148438 42.269531 48.164062 42.175781 C 46.761719 41.992188 45.355469 41.820312 44.011719 41.335938 C 42.863281 40.921875 41.839844 40.335938 41.148438 39.289062 C 40.71875 38.613281 40.46875 37.835938 40.414062 37.039062 C 40.316406 36.183594 40.433594 35.320312 40.75 34.519531 C 41.304688 33.1875 42.351562 32.347656 43.632812 31.777344 C 45.300781 31.027344 47.070312 30.871094 48.863281 31.011719 C 50.003906 31.074219 51.125 31.347656 52.167969 31.8125 C 53.472656 32.398438 54.527344 33.425781 55.144531 34.707031 L 52.296875 36.175781 C 51.886719 35.5625 51.316406 35.074219 50.644531 34.765625 C 49.828125 34.359375 48.933594 34.132812 48.023438 34.09375 C 47.105469 34.027344 46.183594 34.179688 45.332031 34.539062 C 44.535156 34.917969 43.964844 35.496094 43.9375 36.4375 C 43.914062 37.300781 44.335938 37.867188 45.226562 38.230469 C 46.167969 38.613281 47.164062 38.730469 48.164062 38.871094 C 49.636719 39.066406 51.109375 39.277344 52.488281 39.875 C 54.597656 40.78125 55.660156 42.304688 55.726562 44.628906 C 55.792969 45.765625 55.503906 46.898438 54.898438 47.867188 C 54.132812 49.019531 53.019531 49.722656 51.726562 50.195312 C 50.144531 50.765625 48.496094 50.863281 46.839844 50.789062 C 45.65625 50.753906 44.484375 50.519531 43.378906 50.09375 C 41.875 49.511719 40.640625 48.398438 39.902344 46.972656 C 39.773438 46.722656 39.660156 46.472656 39.527344 46.1875 Z M 39.53125 46.191406 " fill-opacity="1" fill-rule="nonzero"/><path fill="#1d1e1c" d="M 141.609375 44.847656 L 141.609375 50.328125 L 138 50.328125 L 138 31.558594 L 146.648438 31.558594 C 148.242188 31.558594 149.765625 31.839844 151.09375 32.792969 C 152.757812 33.988281 153.597656 35.640625 153.769531 37.65625 C 153.894531 38.984375 153.617188 40.324219 152.976562 41.492188 C 152.089844 43.175781 150.464844 44.347656 148.585938 44.65625 C 147.882812 44.773438 147.171875 44.835938 146.457031 44.835938 C 144.949219 44.859375 143.46875 44.835938 141.976562 44.835938 L 141.605469 44.847656 Z M 141.625 41.550781 C 141.675781 41.558594 141.726562 41.5625 141.78125 41.566406 L 147.027344 41.566406 C 147.347656 41.558594 147.664062 41.503906 147.972656 41.40625 C 149.59375 40.90625 150.480469 39.429688 150.191406 37.71875 C 149.945312 36.070312 148.65625 35.019531 146.984375 35 C 145.3125 34.976562 143.625 35 141.941406 35 L 141.625 35 Z M 141.625 41.550781 " fill-opacity="1" fill-rule="nonzero"/><path fill="#1d1e1c" d="M 128.296875 31.640625 L 131.835938 31.640625 L 131.835938 31.925781 C 131.835938 35.617188 131.871094 39.308594 131.835938 43 C 131.8125 44.914062 131.261719 46.691406 129.980469 48.183594 C 128.863281 49.484375 127.421875 50.214844 125.761719 50.546875 C 124.847656 50.730469 123.914062 50.785156 122.984375 50.71875 C 120.914062 50.566406 119.042969 49.910156 117.554688 48.40625 C 116.460938 47.308594 115.75 45.890625 115.53125 44.359375 C 115.40625 43.519531 115.347656 42.675781 115.351562 41.828125 C 115.332031 38.5625 115.351562 35.289062 115.351562 32.019531 L 115.351562 31.652344 L 118.910156 31.652344 L 118.910156 42.386719 C 118.882812 43.316406 119.066406 44.234375 119.453125 45.082031 C 119.90625 46.0625 120.746094 46.8125 121.769531 47.152344 C 123.054688 47.636719 124.476562 47.609375 125.742188 47.082031 C 126.753906 46.644531 127.53125 45.796875 127.882812 44.753906 C 128.15625 44.011719 128.292969 43.226562 128.285156 42.4375 L 128.285156 32.007812 Z M 128.296875 31.640625 " fill-opacity="1" fill-rule="nonzero"/><path fill="#1d1e1c" d="M 61.15625 31.589844 L 64.664062 31.589844 L 64.664062 50.324219 L 61.15625 50.324219 Z M 61.15625 31.589844 " fill-opacity="1" fill-rule="nonzero"/><path fill="#1d1e1c" d="M 13.78125 38.121094 L 22.226562 38.121094 L 22.226562 35.25 L 10.917969 35.25 L 10.917969 43.679688 L 10.914062 43.679688 L 10.914062 46.554688 L 27.800781 46.554688 L 27.800781 47.894531 L 10.914062 47.894531 L 10.914062 50.769531 L 30.671875 50.769531 L 30.671875 43.679688 L 13.78125 43.679688 Z M 13.78125 38.121094 " fill-opacity="1" fill-rule="nonzero"/><path fill="#1d1e1c" d="M 27.800781 35.25 L 30.671875 35.25 L 30.671875 38.121094 L 27.800781 38.121094 Z M 27.800781 35.25 " fill-opacity="1" fill-rule="nonzero"/><path fill="#1d1e1c" d="M 27.800781 39.472656 L 26.441406 39.472656 L 26.441406 33.921875 L 30.675781 33.921875 L 30.675781 31.050781 L 10.914062 31.050781 L 10.914062 33.921875 L 23.582031 33.921875 L 23.582031 39.472656 L 15.144531 39.472656 L 15.144531 42.351562 L 30.667969 42.351562 L 30.667969 40.222656 L 30.671875 40.222656 L 30.671875 39.472656 Z M 27.800781 39.472656 " fill-opacity="1" fill-rule="nonzero"/></svg>